<svg width="116" height="27" viewBox="0 0 116 27" fill="none" xmlns="http://www.w3.org/2000/svg">
<path d="M13.2805 20.0757H12.1194V10.5002H2.25689V9.49222H12.1194V6.40206C12.1194 5.67926 12.002 4.99624 11.7672 4.35964C11.5323 3.72304 11.1801 3.17596 10.7105 2.71509C10.2408 2.24759 9.66681 1.87955 8.98844 1.6143C8.31007 1.34242 7.52733 1.20317 6.64023 1.20317C5.75965 1.20317 4.97691 1.34242 4.29201 1.6143C3.61364 1.87955 3.03963 2.24759 2.56999 2.71509C2.10687 3.17596 1.75464 3.72304 1.51329 4.35964C1.27847 4.99624 1.16106 5.67926 1.16106 6.40206V20.0757H0V6.77341C0 5.74889 0.156548 4.83046 0.469643 4.01481C0.782738 3.20249 1.21977 2.50952 1.78725 1.9326C2.36126 1.34905 3.05594 0.904761 3.87455 0.593093C4.6899 0.284741 5.61288 0.128906 6.64023 0.128906C7.66431 0.128906 8.59055 0.288056 9.41895 0.606356C10.2539 0.924655 10.9518 1.37226 11.5193 1.94587C12.0835 2.51284 12.5173 3.2058 12.8239 4.02808C13.1272 4.85035 13.2805 5.76546 13.2805 6.77341V20.0757Z" fill="#50545D"/>
<path d="M16.7266 6.80469H17.7702V14.8418C17.7702 15.4784 17.8746 16.0719 18.0833 16.6189C18.2986 17.1693 18.5921 17.6468 18.9574 18.0513C19.3226 18.4492 19.7597 18.7675 20.275 19.0062C20.787 19.2383 21.348 19.351 21.9579 19.351C22.5482 19.351 23.0994 19.2416 23.6147 19.0194C24.1267 18.7907 24.5702 18.4724 24.9453 18.0645C25.3171 17.6501 25.6106 17.1726 25.8194 16.6322C26.0346 16.0951 26.1455 15.4982 26.1455 14.8418V6.80469H27.1892V15.0142C27.1892 15.7569 27.0587 16.4565 26.7978 17.1096C26.5434 17.7661 26.1846 18.3298 25.715 18.8072C25.2454 19.2847 24.6877 19.666 24.0452 19.9478C23.4092 20.2197 22.7145 20.3589 21.9579 20.3589C21.2012 20.3589 20.5 20.2197 19.8575 19.9478C19.2215 19.666 18.6704 19.2847 18.2007 18.8072C17.7311 18.3298 17.3658 17.7661 17.1049 17.1096C16.8505 16.4565 16.7266 15.7569 16.7266 15.0142V6.80469Z" fill="#50545D"/>
<path d="M30.5078 3.15234H31.5515V6.79953H36.1827V7.80748H31.5515V16.4679C31.5515 17.2471 31.7798 17.8737 32.2429 18.3512C32.7027 18.8286 33.2898 19.0673 34.004 19.0673H36.1827V20.0753H34.2258C33.0061 20.0753 32.0798 19.7371 31.4471 19.0541C30.8209 18.3744 30.5078 17.4725 30.5078 16.3485V3.15234Z" fill="#50545D"/>
<path d="M50.779 13.4332C50.779 14.3715 50.6127 15.2601 50.2833 16.099C49.9507 16.9411 49.4875 17.6739 48.8874 18.3005C48.2939 18.9305 47.5959 19.4278 46.7871 19.7992C45.9783 20.1705 45.1042 20.3562 44.1649 20.3562C43.2256 20.3562 42.3516 20.1705 41.5427 19.7992C40.7404 19.4278 40.0458 18.9305 39.4554 18.3005C38.8619 17.6739 38.3987 16.9411 38.0596 16.099C37.7204 15.2601 37.5508 14.3715 37.5508 13.4332C37.5508 12.5048 37.7204 11.6229 38.0596 10.7807C38.3987 9.94184 38.8619 9.20909 39.4554 8.57912C40.0458 7.95247 40.7404 7.45181 41.5427 7.08046C42.3516 6.70911 43.2256 6.52344 44.1649 6.52344C45.1042 6.52344 45.9783 6.70911 46.7871 7.08046C47.5959 7.45181 48.2906 7.95579 48.8744 8.59239C49.4647 9.22898 49.9311 9.96837 50.2703 10.8072C50.6095 11.6494 50.779 12.5247 50.779 13.4332ZM44.1649 19.3483C44.9379 19.3483 45.6586 19.1957 46.3305 18.8841C46.9991 18.5757 47.5829 18.1513 48.0786 17.6109C48.5743 17.0737 48.9657 16.4504 49.2527 15.7409C49.5397 15.0247 49.6832 14.2555 49.6832 13.4332C49.6832 12.6374 49.5397 11.8881 49.2527 11.1786C48.9657 10.4624 48.5743 9.83574 48.0786 9.2953C47.5829 8.75817 46.9958 8.32714 46.3174 8.00884C45.6391 7.69054 44.9118 7.53139 44.1388 7.53139C43.3626 7.53139 42.6418 7.69717 41.9732 8.0221C41.3014 8.35035 40.7209 8.78469 40.2251 9.32182C39.7294 9.86227 39.3413 10.4889 39.0641 11.2051C38.7934 11.9146 38.6597 12.6573 38.6597 13.4332C38.6597 14.2223 38.7934 14.9716 39.0641 15.6878C39.3413 16.3974 39.7294 17.024 40.2251 17.5711C40.7209 18.1215 41.3014 18.5525 41.9732 18.8708C42.6418 19.1891 43.3724 19.3483 44.1649 19.3483Z" fill="#50545D"/>
<path d="M62.9521 18.5107C63.063 18.8821 63.187 19.0677 63.3174 19.0677C63.3859 19.0677 63.4479 18.9882 63.5001 18.829C63.5588 18.6699 63.6077 18.524 63.6436 18.3913L68.4704 1.83977C68.5748 1.48831 68.6694 1.19985 68.7574 0.977705C68.852 0.748928 68.9596 0.576515 69.0836 0.460468C69.2043 0.337791 69.3478 0.2549 69.5141 0.208481C69.6772 0.155431 69.8859 0.128906 70.1403 0.128906C70.6621 0.128906 71.0143 0.327844 71.197 0.725718C71.3796 1.11696 71.5133 1.67399 71.6014 2.39679L73.9757 20.0757H72.8146L70.4534 2.21112C70.3914 1.78009 70.3229 1.51484 70.2446 1.41537C70.1729 1.30927 70.1044 1.25622 70.0359 1.25622C69.8859 1.25622 69.7815 1.33579 69.7228 1.49494C69.6706 1.65409 69.625 1.78672 69.5924 1.89282L64.909 18.1394C64.7785 18.5737 64.6676 18.9318 64.5828 19.2136C64.5046 19.4888 64.4067 19.7043 64.2958 19.8635C64.1915 20.0226 64.061 20.1321 63.9045 20.195C63.7479 20.2647 63.5424 20.3011 63.2913 20.3011C63.0467 20.3011 62.851 20.2746 62.7043 20.2216C62.5542 20.1752 62.4238 20.0823 62.3129 19.9431C62.2085 19.7939 62.1042 19.5783 61.9998 19.2932C61.902 19.0114 61.7911 18.6268 61.6606 18.1394L57.0033 1.98565C56.9511 1.77345 56.8892 1.60104 56.8207 1.46842C56.7587 1.32916 56.6641 1.25622 56.5337 1.25622C56.4619 1.25622 56.3902 1.30927 56.3119 1.41537C56.2402 1.51484 56.188 1.73035 56.1554 2.06523L53.755 20.0757H52.5939L54.9943 2.17133C55.0269 1.9326 55.066 1.69056 55.1117 1.44189C55.1639 1.18659 55.2356 0.964443 55.3335 0.778768C55.4379 0.593093 55.5748 0.440575 55.7509 0.314581C55.9238 0.191903 56.1488 0.128906 56.4293 0.128906C56.6968 0.128906 56.9185 0.162062 57.0946 0.221744C57.2773 0.274794 57.4273 0.380893 57.5512 0.540043C57.6817 0.699193 57.7926 0.931286 57.8904 1.22969C57.9948 1.52147 58.1187 1.90276 58.2688 2.37027L62.9521 18.5107Z" fill="#46A6C0"/>
<path d="M76.4297 6.80469H77.4733V14.8418C77.4733 15.4784 77.5777 16.0718 77.7864 16.6189C78.0017 17.1693 78.2952 17.6468 78.6605 18.0513C79.0258 18.4492 79.4628 18.7675 79.9781 19.0062C80.4901 19.2383 81.0511 19.351 81.661 19.351C82.2513 19.351 82.8025 19.2416 83.3178 19.0194C83.8298 18.7907 84.2734 18.4724 84.6484 18.0645C85.0202 17.6501 85.3138 17.1726 85.5225 16.6322C85.7377 16.0951 85.8486 15.4982 85.8486 14.8418V6.80469H86.8923V15.0142C86.8923 15.6707 86.7879 16.3006 86.5792 16.9107C86.3705 17.5141 86.0606 18.0579 85.6529 18.542C85.2518 19.0294 84.7658 19.4273 84.1918 19.7356C83.6244 20.0373 82.9721 20.2263 82.235 20.3059V26.1281H81.087V20.3059C80.3466 20.2263 79.6846 20.0373 79.104 19.7356C78.53 19.4273 78.0408 19.0294 77.6429 18.542C77.2516 18.0579 76.9515 17.5141 76.7428 16.9107C76.5341 16.3006 76.4297 15.6707 76.4297 15.0142V6.80469Z" fill="#46A6C0"/>
<path d="M100.672 20.0777H99.6279V12.0406C99.6279 11.4239 99.5268 10.8404 99.3279 10.29C99.1257 9.74291 98.8354 9.26877 98.4538 8.8709C98.0788 8.46639 97.6352 8.14146 97.1232 7.90274C96.6079 7.65738 96.0469 7.53139 95.4403 7.53139C94.8141 7.53139 94.2433 7.65075 93.7313 7.88947C93.216 8.12157 92.7725 8.44318 92.4007 8.85764C92.0354 9.26546 91.7516 9.74291 91.5527 10.29C91.3505 10.8404 91.2526 11.4239 91.2526 12.0406V20.0777H90.209V11.8682C90.209 11.1255 90.3329 10.4326 90.5873 9.78601C90.8482 9.14278 91.2037 8.57581 91.657 8.08841C92.1169 7.60433 92.6681 7.22303 93.3138 6.94784C93.9563 6.66601 94.6641 6.52344 95.4403 6.52344C96.2132 6.52344 96.921 6.66601 97.5667 6.94784C98.2092 7.22303 98.7571 7.60765 99.2105 8.10167C99.6703 8.59902 100.026 9.1693 100.28 9.81253C100.541 10.4591 100.672 11.1454 100.672 11.8682V20.0777Z" fill="#46A6C0"/>
<path d="M114.943 0.472656H116V13.5229C116 14.4347 115.844 15.3068 115.53 16.1357C115.217 16.9679 114.777 17.6973 114.213 18.324C113.655 18.9539 112.987 19.448 112.204 19.8094C111.421 20.1708 110.563 20.3531 109.634 20.3531C108.711 20.3531 107.863 20.1741 107.09 19.8226C106.324 19.4712 105.655 18.9838 105.081 18.3638C104.513 17.747 104.07 17.0176 103.75 16.1754C103.427 15.3366 103.268 14.4215 103.268 13.4301C103.268 12.4686 103.427 11.5601 103.75 10.7113C104.07 9.85587 104.513 9.1198 105.081 8.50972C105.655 7.89302 106.324 7.40562 107.09 7.05085C107.863 6.6994 108.711 6.52035 109.634 6.52035C111.059 6.52035 112.416 7.08401 113.704 8.20469V9.46462C113.104 8.82802 112.494 8.34726 111.878 8.01901C111.258 7.69408 110.511 7.5283 109.634 7.5283C108.929 7.5283 108.254 7.68745 107.612 8.00575C106.976 8.32405 106.418 8.74845 105.942 9.27895C105.463 9.80945 105.081 10.4394 104.794 11.1622C104.507 11.8784 104.363 12.6344 104.363 13.4301C104.363 14.2524 104.507 15.0216 104.794 15.7378C105.081 16.4473 105.463 17.0707 105.942 17.6078C106.418 18.1482 106.976 18.5726 107.612 18.881C108.254 19.1927 108.929 19.3452 109.634 19.3452C110.417 19.3452 111.134 19.1827 111.786 18.8545C112.439 18.5295 113 18.0952 113.469 17.5547C113.939 17.0176 114.298 16.3976 114.552 15.698C114.813 14.9918 114.943 14.2656 114.943 13.5229V0.472656Z" fill="#46A6C0"/>
</svg>
