<svg width="26" height="26" viewBox="0 0 26 26" fill="none" xmlns="http://www.w3.org/2000/svg">
<rect x="1" y="3" width="24" height="6" fill="#93E8FF"/>
<path d="M23.91 2.99902H2.09095C1.48844 2.99902 1 3.44676 1 3.99906V23.9999C1 24.5522 1.48844 24.9999 2.09095 24.9999H23.91C24.5126 24.9999 25.001 24.5522 25.001 23.9999V3.99906C25.001 3.44676 24.5126 2.99902 23.91 2.99902Z" stroke="#46A6C0" stroke-width="2" stroke-linecap="round" stroke-linejoin="round"/>
<path d="M19 1V5.00016" stroke="#46A6C0" stroke-width="2" stroke-linecap="round" stroke-linejoin="round"/>
<path d="M7 1V5.00016" stroke="#46A6C0" stroke-width="2" stroke-linecap="round" stroke-linejoin="round"/>
<path d="M1 9H25.001" stroke="#46A6C0" stroke-width="2" stroke-linecap="round" stroke-linejoin="round"/>
<path d="M6 15H8" stroke="#00B58D" stroke-width="2" stroke-linecap="round"/>
<path d="M12 15H14" stroke="#00B58D" stroke-width="2" stroke-linecap="round"/>
<path d="M18 15H20" stroke="#00B58D" stroke-width="2" stroke-linecap="round"/>
<path d="M6 19H8" stroke="#00B58D" stroke-width="2" stroke-linecap="round"/>
<path d="M12 19H14" stroke="#00B58D" stroke-width="2" stroke-linecap="round"/>
<path d="M18 19H20" stroke="#00B58D" stroke-width="2" stroke-linecap="round"/>
</svg>
