<svg width="36" height="33" viewBox="0 0 36 33" fill="none" xmlns="http://www.w3.org/2000/svg">
<path d="M16.9361 8C11.9567 8 6.97739 8 1.99806 8C0.599503 8 0.00708238 7.34421 0.00333288 5.79901C0.00333288 5.20061 -0.0041661 4.5981 0.00333288 3.9997C0.0220804 2.7578 0.711987 2.00774 1.85933 2.00364C4.87393 1.99545 7.88852 2.00364 10.9031 2.00364C17.8922 2.00364 24.8812 2.00364 31.8703 2.00364C33.3813 2.00364 34 2.67173 34 4.2989C34 4.82353 34 5.34816 34 5.87279C33.9963 7.31142 33.3813 7.9959 32.0765 7.9959C27.0297 7.9959 21.9791 7.9959 16.9323 7.9959L16.9361 8ZM5.21138 5.03256C5.22263 4.16364 4.64146 3.50786 3.85406 3.50376C3.08917 3.49966 2.5005 4.10626 2.47425 4.93419C2.44425 5.80311 3.01418 6.47529 3.79782 6.49989C4.59271 6.52448 5.20013 5.89328 5.21138 5.03256ZM31.5328 4.98338C31.5253 4.11856 30.9254 3.48736 30.1305 3.50376C29.3694 3.52015 28.8032 4.14725 28.7957 4.98338C28.7882 5.8523 29.3731 6.49989 30.1643 6.49989C30.9554 6.49989 31.5403 5.8523 31.5328 4.98338Z" fill="#B6EFFF"/>
<path d="M28.0103 32.994C29.9037 31.1277 31.7382 29.3157 33.608 27.4688C33.608 28.8345 33.6473 30.212 33.5923 31.5855C33.5648 32.2994 32.8263 32.9591 32.0957 32.9785C30.7444 33.0173 29.3891 32.9901 28.0103 32.9901V32.994Z" fill="#B6EFFF"/>
<path d="M15.8384 13.418C19.417 13.4219 22.4261 16.3979 22.4221 19.9326C22.4221 23.5178 19.4131 26.4822 15.7952 26.4744C12.2127 26.4667 9.21548 23.4984 9.21155 19.9598C9.21155 16.3824 12.2166 13.4141 15.8384 13.418ZM15.0803 22.4935C15.3396 22.4818 15.4574 22.3189 15.591 22.1869C16.9462 20.8522 18.3014 19.5136 19.6488 18.1749C19.8374 17.9848 20.187 17.7637 19.8688 17.4843C19.5899 17.2398 19.4092 17.6046 19.2403 17.7675C18.0304 18.9471 16.8205 20.1266 15.642 21.3333C15.2806 21.7019 15.0371 21.7524 14.6639 21.3489C14.0511 20.6854 13.3872 20.0723 12.743 19.436C12.5859 19.2808 12.3895 19.1256 12.1852 19.3235C11.9613 19.5446 12.1931 19.7076 12.3384 19.8511C13.1476 20.6582 13.9608 21.4575 14.7739 22.2568C14.8721 22.3538 14.9939 22.4275 15.0803 22.4935Z" fill="#B6EFFF"/>
<path d="M18.5243 0C23.5382 0 28.5483 0 33.5622 0C35.1587 0 36 0.882597 36 2.55406C36 11.4816 36 20.4091 36 29.3366C36 31.1447 35.1774 32 33.4463 32C23.4896 32 13.5328 32 3.57985 32C1.81508 32 1.00374 31.1447 1.00374 29.2858C1 20.3817 1 11.4777 1 2.57359C1 0.86307 1.83752 0 3.48638 0C8.50027 0 13.5142 0 18.5243 0ZM29.4345 31.4298C29.4345 30.0669 29.4345 28.7859 29.4345 27.505C29.4345 25.8726 30.1224 25.1462 31.6703 25.1462C32.9154 25.1462 34.1567 25.1462 35.413 25.1462V6.14694C34.7437 6.82646 33.9885 6.86551 33.2033 6.86551C23.4784 6.8577 13.7534 6.8577 4.03226 6.86551C3.16857 6.86551 2.30114 6.92409 1.54588 6.09226C1.54588 6.51013 1.54588 6.74445 1.54588 6.97877C1.54588 14.4027 1.54588 21.8267 1.54588 29.2546C1.54588 30.8557 2.10672 31.4337 3.65463 31.4337C11.9887 31.4337 20.3227 31.4337 28.6605 31.4337H29.4382L29.4345 31.4298ZM18.4308 6.28753C23.4634 6.28753 28.4997 6.28753 33.5323 6.28753C34.8335 6.28753 35.4466 5.63534 35.4504 4.26458C35.4504 3.76471 35.4504 3.26483 35.4504 2.76495C35.4504 1.21064 34.8335 0.577984 33.3267 0.577984C26.3573 0.577984 19.388 0.577984 12.4187 0.577984C9.41256 0.577984 6.40647 0.574079 3.40038 0.577984C2.25628 0.577984 1.56832 1.29656 1.54962 2.47986C1.54214 3.05004 1.54962 3.62411 1.54962 4.19429C1.54962 5.66268 2.14411 6.29143 3.53872 6.29143C8.50401 6.29143 13.4693 6.29143 18.4346 6.29143L18.4308 6.28753ZM30.1075 31.422C31.4198 31.422 32.7098 31.4494 33.9959 31.4103C34.6914 31.3908 35.3943 30.7269 35.4205 30.0083C35.4728 28.6258 35.4354 27.2394 35.4354 25.8648C33.6557 27.7237 31.9059 29.5436 30.1075 31.4259V31.422ZM29.9878 30.6058C31.5507 28.9773 33.0014 27.4699 34.4483 25.9585C34.4895 25.9155 34.5082 25.8492 34.5717 25.7242C33.4127 25.7242 32.306 25.6929 31.203 25.7359C30.5187 25.7593 30.0177 26.3139 29.999 27.0442C29.9691 28.1767 29.9916 29.3132 29.9916 30.6058H29.9878Z" fill="#46A6C0"/>
<path d="M17.6006 11.0742C21.5838 11.0665 24.801 14.2559 24.7971 18.2097C24.7932 22.0665 21.5642 25.2637 17.6674 25.2676C13.6645 25.2753 10.4355 22.1053 10.4355 18.167C10.4355 14.2598 13.6449 11.082 17.6045 11.0742H17.6006ZM17.636 11.6407C14.0102 11.6368 11.0051 14.6051 11.0091 18.1825C11.0091 21.725 14.0102 24.6894 17.5928 24.6972C21.2146 24.7049 24.2196 21.7406 24.2196 18.1554C24.2196 14.6206 21.2146 11.6446 17.636 11.6407Z" fill="#46A6C0"/>
<path d="M5.25855 3.43557C5.24677 4.25039 4.6104 4.84792 3.77761 4.82464C2.95662 4.80136 2.35953 4.16502 2.39096 3.34245C2.41845 2.55867 3.03518 1.98442 3.83654 1.9883C4.66539 1.99218 5.27426 2.61299 5.25855 3.43557ZM4.69289 3.41229C4.62611 2.904 4.35899 2.57031 3.82868 2.56643C3.3023 2.56643 2.98019 2.8846 2.97626 3.40065C2.97626 3.92058 3.29444 4.23875 3.82082 4.24263C4.35113 4.24651 4.62218 3.9167 4.69289 3.40841V3.41229Z" fill="#46A6C0"/>
<path d="M32.8375 3.38928C32.8454 4.21186 32.2326 4.82491 31.4037 4.82491C30.5749 4.82491 29.9621 4.21186 29.9699 3.38928C29.9778 2.59775 30.5709 2.0041 31.3684 1.98858C32.2011 1.97306 32.8297 2.57059 32.8375 3.38928ZM31.3762 2.55119C30.8656 2.63267 30.5356 2.90816 30.5552 3.43197C30.5749 3.94802 30.9048 4.2623 31.4273 4.24678C31.9497 4.23126 32.264 3.90534 32.2522 3.3854C32.2365 2.86159 31.8947 2.60163 31.3762 2.55119Z" fill="#46A6C0"/>
<path d="M16.8763 20.7161C16.7899 20.6502 16.6681 20.5764 16.5699 20.4794C15.7567 19.6801 14.9436 18.877 14.1344 18.0738C13.989 17.9302 13.7573 17.7673 13.9812 17.5461C14.1815 17.3482 14.3779 17.5034 14.539 17.6586C15.1832 18.2911 15.851 18.908 16.4599 19.5715C16.8331 19.975 17.0766 19.9246 17.438 19.556C18.6204 18.3493 19.8303 17.1697 21.0363 15.9902C21.2052 15.8272 21.3859 15.4625 21.6648 15.7069C21.983 15.9863 21.6333 16.2114 21.4448 16.3976C20.0974 17.7401 18.7422 19.0749 17.3869 20.4096C17.2534 20.5415 17.1395 20.7006 16.8763 20.7161Z" fill="#46A6C0"/>
</svg>
