<svg width="30" height="32" viewBox="0 0 30 32" fill="none" xmlns="http://www.w3.org/2000/svg">
<path d="M15.2663 3.72694C13.2825 3.72694 11.4087 3.72694 9.53046 3.72694C9.17417 3.72694 9.13898 3.52036 9.13458 3.24923C9.13458 2.96089 9.20936 2.78874 9.55245 2.79305C11.3207 2.80165 13.089 2.78444 14.8572 2.80166C15.5566 2.80596 15.2003 3.30518 15.2663 3.72694Z" fill="#B6EFFF"/>
<path d="M12.7761 28.3574C7.50208 28.2757 3.64887 24.3206 3.60488 19.3972C3.56089 14.3448 7.95954 10.4026 12.842 10.4457C17.6058 10.4887 21.9384 14.2027 21.9428 19.3972C21.9428 24.454 17.9181 28.2671 12.7761 28.3574ZM12.1778 17.6457C12.1778 18.0029 12.2174 18.3601 12.169 18.7087C12.0635 19.4704 12.411 19.9094 13.0928 20.2192C13.625 20.4602 14.122 20.783 14.6279 21.0757C14.9842 21.2822 15.3581 21.4544 15.6264 21.0068C15.8991 20.5506 15.5164 20.3139 15.1865 20.1116C14.7818 19.8663 14.364 19.6425 13.9417 19.4274C13.5414 19.2251 13.3479 18.9583 13.3743 18.4806C13.4183 17.6844 13.4051 16.8796 13.3743 16.0834C13.3567 15.7219 13.2027 15.3131 12.7629 15.3389C12.367 15.3647 12.1734 15.7004 12.1778 16.1093C12.1866 16.6214 12.1778 17.1292 12.1778 17.6414V17.6457ZM12.1778 12.4167C12.1602 12.8385 12.1822 13.2689 12.7497 13.2861C13.3655 13.3033 13.3611 12.8256 13.3919 12.3995C13.4227 11.9304 13.2775 11.4785 12.7629 11.4785C12.2042 11.4785 12.1602 11.9735 12.1778 12.421V12.4167ZM12.1778 26.4337C12.1602 26.8598 12.2042 27.2858 12.7673 27.2858C13.3787 27.2858 13.3655 26.8038 13.3875 26.3778C13.4139 25.9087 13.2687 25.4611 12.7453 25.4783C12.1866 25.4955 12.1646 25.9947 12.1778 26.438V26.4337ZM17.465 23.5632C17.2055 23.5933 16.968 23.7353 16.9724 24.0882C16.9768 24.4583 17.7685 25.1813 18.1248 25.1598C18.4635 25.1426 18.6746 24.9619 18.6922 24.6262C18.7098 24.2905 17.8917 23.5546 17.465 23.5675V23.5632ZM8.57975 14.7622C8.57095 14.4136 7.72201 13.5959 7.40531 13.6131C7.15459 13.6261 6.98744 13.781 6.91266 14.0091C6.7983 14.3663 7.04462 14.5944 7.26455 14.8139C7.49768 15.0506 7.73521 15.3475 8.12229 15.2485C8.35982 15.1883 8.54016 14.9946 8.58415 14.7622H8.57975ZM18.6922 14.1382C18.5999 13.8843 18.4503 13.639 18.1072 13.6218C17.8389 13.6088 16.9636 14.4351 16.9724 14.6891C16.9856 15.0204 17.1879 15.2227 17.5134 15.2744C17.7685 15.3131 18.6878 14.4351 18.6922 14.1382ZM19.7523 18.9109C19.5236 18.9454 18.9957 18.7345 18.9913 19.3886C18.9913 19.8018 19.2685 19.9739 19.6643 19.961C20.1218 19.9481 20.676 20.0901 20.8652 19.4919C20.9575 19.1993 20.7332 18.9841 20.4341 18.9195C20.2625 18.8808 20.0734 18.9109 19.7523 18.9109ZM5.65465 18.8894C5.4743 18.898 5.28516 18.8722 5.11362 18.9195C4.82331 18.997 4.62537 19.2036 4.70014 19.5134C4.81891 20.0084 5.24118 19.9696 5.63266 19.9653C6.02414 19.9567 6.4508 19.9653 6.56517 19.4962C6.63995 19.195 6.42881 18.9927 6.1297 18.9195C5.98015 18.8808 5.813 18.9023 5.65465 18.8937V18.8894ZM8.49617 24.0409C8.49617 23.7138 8.32463 23.5589 7.99473 23.5675C7.62964 23.5761 6.83788 24.3292 6.87307 24.6606C6.90386 24.9619 7.08861 25.1426 7.40091 25.1598C7.7484 25.1813 8.50057 24.4024 8.49617 24.0452V24.0409Z" fill="#B6EFFF"/>
<path d="M11.8398 4.35959C11.9102 3.93353 11.9146 3.55911 11.8398 3.16748C11.4 3.00394 10.9425 3.08571 10.4983 3.09002C9.96163 3.09432 9.68891 2.88775 9.69771 2.34549C9.7065 1.81183 9.69771 1.27818 9.69771 0.74453C9.7065 0.232397 9.95723 0 10.5071 0C12.7988 0.0129109 15.0948 0.00860729 17.3865 0C17.8924 0 18.1519 0.197968 18.1431 0.710101C18.1343 1.28679 18.1343 1.86348 18.1431 2.44447C18.1519 2.89635 17.932 3.09432 17.4789 3.08141C17.0083 3.0728 16.5332 3.08141 16.0757 3.08141C15.7942 4.17023 15.8338 4.23479 16.8719 4.43706C22.9596 5.62917 27.4946 10.3675 28.3128 16.4055C28.3568 16.7326 28.3568 17.064 28.3832 17.4255C28.7306 17.4341 28.8406 17.15 29.0385 16.9994C29.2805 16.81 29.5268 16.7455 29.7775 16.9521C30.0502 17.1758 30.0722 17.4728 29.8435 17.7181C29.3201 18.2733 28.779 18.8112 28.2204 19.332C27.9741 19.5601 27.6706 19.5385 27.4242 19.3062C26.8568 18.7639 26.2982 18.2087 25.7352 17.6579C25.4888 17.4168 25.4537 17.1457 25.7 16.8961C25.9463 16.6465 26.2366 16.6422 26.4741 16.9004C26.6853 17.1285 26.848 17.3953 27.1339 17.5718C27.2527 16.4571 27.0548 15.4501 26.7513 14.4646C24.9214 8.52122 19.1372 4.74262 12.8251 5.34943C6.76821 5.93042 1.83733 10.7419 1.19952 16.6938C0.495742 23.2354 4.70525 29.0453 11.2592 30.5731C11.3252 30.5903 11.3868 30.6161 11.4572 30.629C11.8354 30.7022 12.1214 30.8787 12.0378 31.2961C11.941 31.7609 11.5671 31.7781 11.1801 31.6877C9.34582 31.2789 7.63034 30.5946 6.10841 29.5101C1.69217 26.3641 -0.37519 22.0949 0.0558771 16.7885C0.535329 10.8323 5.09672 5.86156 11.0701 4.54035C11.312 4.4887 11.5539 4.42845 11.8398 4.35959ZM17.0259 2.00119C16.9599 1.57944 17.3162 1.08021 16.6168 1.07591C14.8485 1.0587 13.0803 1.07591 11.312 1.0673C10.9689 1.0673 10.8897 1.23515 10.8941 1.52349C10.8941 1.79462 10.9337 2.0055 11.29 2.00119C13.1682 1.99689 15.0465 2.00119 17.0259 2.00119ZM13.0451 4.20036H14.8045C14.8881 3.81733 14.8881 3.48165 14.8045 3.11154C14.2019 3.0685 13.6301 3.05128 13.0407 3.12445C12.9659 3.50747 12.9571 3.84315 13.0407 4.20036H13.0451Z" fill="#46A6C0"/>
<path d="M14.0611 28.1426C8.38684 28.1383 3.81665 23.6539 3.81665 18.1022C3.81665 12.5419 8.44842 8.01875 14.1271 8.02736C19.7881 8.03596 24.3979 12.5935 24.3803 18.1624C24.3671 23.6711 19.7353 28.1469 14.0567 28.1426H14.0611ZM14.0963 27.0667C19.2383 26.9763 23.2631 23.1633 23.2631 18.1065C23.2631 12.912 18.926 9.19795 14.1623 9.15491C9.27977 9.11187 4.88112 13.0497 4.92511 18.1065C4.9691 23.0299 8.82231 26.9849 14.0963 27.0667Z" fill="#46A6C0"/>
<path d="M17.2899 31.6981C16.9556 31.6507 16.7268 31.556 16.6565 31.2806C16.5773 30.9794 16.6961 30.747 16.9952 30.648C17.3998 30.5146 17.8133 30.3898 18.2312 30.308C18.5303 30.252 18.7546 30.4113 18.8602 30.6996C18.9614 30.9837 18.8206 31.2031 18.5787 31.2978C18.1388 31.47 17.6813 31.5819 17.2899 31.7024V31.6981Z" fill="#46A6C0"/>
<path d="M24.8834 27.0394C24.8834 27.3879 23.8849 28.3864 23.5198 28.4036C23.2955 28.4122 23.1284 28.3261 23.0096 28.1411C22.8864 27.9474 22.8864 27.7495 23.036 27.5859C23.3395 27.2588 23.6562 26.9447 23.9861 26.6434C24.1708 26.4756 24.404 26.4842 24.6151 26.6047C24.7779 26.6951 24.8746 26.8457 24.8834 27.0394Z" fill="#46A6C0"/>
<path d="M21.4754 28.8097C21.8053 28.7968 21.99 28.9 22.0868 29.1324C22.1968 29.395 22.122 29.6274 21.8977 29.7737C21.5414 30.0061 21.1675 30.2127 20.7936 30.4063C20.5429 30.5354 20.301 30.458 20.1338 30.2471C19.9799 30.0534 19.9579 29.7995 20.125 29.636C20.5253 29.2443 21.0399 29.0205 21.4798 28.814L21.4754 28.8097Z" fill="#46A6C0"/>
<path d="M26.0849 24.1289C26.4588 24.1935 26.6392 24.3914 26.6172 24.7314C26.5908 25.1575 26.0586 25.7514 25.7331 25.7083C25.3944 25.6653 25.148 25.4415 25.2448 25.1187C25.3724 24.6841 25.5263 24.2107 26.0849 24.1289Z" fill="#46A6C0"/>
<path d="M14.5099 31.9935C14.0568 32.015 13.6433 31.9461 13.6609 31.4383C13.6785 30.9305 14.1184 30.9219 14.5187 30.9219C14.9322 30.9219 15.3588 30.952 15.3324 31.4684C15.306 31.9548 14.8926 32.0236 14.5099 31.9935Z" fill="#46A6C0"/>
<path d="M13.4978 16.3544C13.4978 15.8423 13.5022 15.3344 13.4978 14.8223C13.4934 14.4134 13.6869 14.0735 14.0828 14.0519C14.5227 14.0261 14.681 14.435 14.6942 14.7965C14.7294 15.5926 14.7426 16.3974 14.6942 17.1936C14.6678 17.6713 14.8614 17.9381 15.2617 18.1404C15.6839 18.3556 16.1018 18.5794 16.5065 18.8247C16.8364 19.027 17.2147 19.2637 16.9463 19.7198C16.678 20.1674 16.3041 19.9953 15.9478 19.7887C15.442 19.4918 14.945 19.1733 14.4127 18.9323C13.7353 18.6224 13.3834 18.1834 13.489 17.4217C13.5374 17.0731 13.4978 16.7116 13.4978 16.3587V16.3544Z" fill="#46A6C0"/>
<path d="M13.4997 11.1261C13.4822 10.6828 13.5261 10.1836 14.0848 10.1836C14.5994 10.1836 14.7446 10.6355 14.7138 11.1046C14.6874 11.5306 14.6874 12.0083 14.0716 11.9911C13.5085 11.9739 13.4866 11.5435 13.4997 11.1218V11.1261Z" fill="#46A6C0"/>
<path d="M13.5004 25.1399C13.4828 24.7009 13.5092 24.1974 14.0678 24.1802C14.5912 24.1629 14.7364 24.6148 14.71 25.0796C14.688 25.5057 14.7012 25.9877 14.0898 25.9877C13.5267 25.9877 13.4828 25.5659 13.5004 25.1356V25.1399Z" fill="#46A6C0"/>
<path d="M18.7901 22.266C19.2168 22.2574 20.0349 22.989 20.0174 23.3247C19.9998 23.6604 19.793 23.8412 19.4499 23.8584C19.0892 23.8799 18.3019 23.1569 18.2975 22.7868C18.2931 22.4339 18.5306 22.2918 18.7901 22.2617V22.266Z" fill="#46A6C0"/>
<path d="M9.9056 13.4657C9.86162 13.6981 9.68127 13.8961 9.44374 13.9521C9.06106 14.051 8.82354 13.7541 8.58601 13.5174C8.36608 13.2979 8.11975 13.0698 8.23412 12.7126C8.30889 12.4845 8.47604 12.3296 8.72677 12.3167C9.04347 12.2995 9.89241 13.1172 9.9012 13.4657H9.9056Z" fill="#46A6C0"/>
<path d="M20.0133 12.8369C20.0133 13.1295 19.0896 14.0118 18.8345 13.9731C18.509 13.9214 18.3023 13.7191 18.2935 13.3878C18.2847 13.1339 19.16 12.3076 19.4283 12.3205C19.767 12.3377 19.921 12.583 20.0133 12.8369Z" fill="#46A6C0"/>
<path d="M21.0708 17.6088C21.3919 17.6088 21.581 17.5787 21.7526 17.6174C22.0473 17.682 22.276 17.8972 22.1836 18.1898C21.9945 18.788 21.4447 18.6503 20.9828 18.6589C20.5869 18.6675 20.3098 18.4997 20.3098 18.0865C20.3098 17.4324 20.8421 17.6432 21.0708 17.6088Z" fill="#46A6C0"/>
<path d="M6.9752 17.5902C7.13356 17.5988 7.3007 17.5816 7.45026 17.6161C7.74937 17.6892 7.9561 17.8915 7.88572 18.1928C7.77136 18.6662 7.34469 18.6575 6.95321 18.6618C6.56173 18.6705 6.13946 18.7049 6.0207 18.21C5.94592 17.9001 6.14386 17.6978 6.43417 17.6161C6.60572 17.5687 6.79486 17.5945 6.9752 17.5859V17.5902Z" fill="#46A6C0"/>
<path d="M9.81521 22.7398C9.81521 23.097 9.06745 23.8759 8.71995 23.8544C8.40765 23.8372 8.2229 23.6564 8.19211 23.3552C8.15693 23.0281 8.94868 22.2707 9.31377 22.2621C9.64367 22.2535 9.81521 22.4084 9.81521 22.7355V22.7398Z" fill="#46A6C0"/>
</svg>
