<svg width="12" height="14" viewBox="0 0 12 14" fill="none" xmlns="http://www.w3.org/2000/svg">
<path d="M1.5 13H10.5" stroke="white" stroke-linecap="round" stroke-linejoin="round"/>
<path d="M6 7.46184C7.10457 7.46184 8 6.63529 8 5.61569C8 4.59608 7.10457 3.76953 6 3.76953C4.89543 3.76953 4 4.59608 4 5.61569C4 6.63529 4.89543 7.46184 6 7.46184Z" stroke="white" stroke-linecap="round" stroke-linejoin="round"/>
<path d="M11 5.61538C11 9.76923 6 13 6 13C6 13 1 9.76923 1 5.61538C1 4.39131 1.52678 3.21737 2.46447 2.35181C3.40215 1.48626 4.67392 1 6 1C7.32608 1 8.59785 1.48626 9.53553 2.35181C10.4732 3.21737 11 4.39131 11 5.61538Z" stroke="white" stroke-linecap="round" stroke-linejoin="round"/>
</svg>
