<svg width="13" height="16" viewBox="0 0 13 16" fill="none" xmlns="http://www.w3.org/2000/svg">
<path d="M1.53906 15H11.2314" stroke="#46A6C0" stroke-linecap="round" stroke-linejoin="round"/>
<path d="M6.38432 8.53816C7.57385 8.53816 8.53816 7.57385 8.53816 6.38432C8.53816 5.19478 7.57385 4.23047 6.38432 4.23047C5.19478 4.23047 4.23047 5.19478 4.23047 6.38432C4.23047 7.57385 5.19478 8.53816 6.38432 8.53816Z" stroke="#46A6C0" stroke-linecap="round" stroke-linejoin="round"/>
<path d="M11.7692 6.38462C11.7692 11.2308 6.38462 15 6.38462 15C6.38462 15 1 11.2308 1 6.38462C1 4.95653 1.56731 3.58693 2.57712 2.57712C3.58693 1.56731 4.95653 1 6.38462 1C7.8127 1 9.1823 1.56731 10.1921 2.57712C11.2019 3.58693 11.7692 4.95653 11.7692 6.38462Z" stroke="#46A6C0" stroke-linecap="round" stroke-linejoin="round"/>
</svg>
