<svg width="12" height="14" viewBox="0 0 12 14" fill="none" xmlns="http://www.w3.org/2000/svg">
<path d="M10.8182 5.90909C10.8182 9.72727 5.90909 13 5.90909 13C5.90909 13 1 9.72727 1 5.90909C1 4.60712 1.51721 3.35847 2.43784 2.43784C3.35847 1.51721 4.60712 1 5.90909 1C7.21106 1 8.45971 1.51721 9.38034 2.43784C10.301 3.35847 10.8182 4.60712 10.8182 5.90909Z" stroke="black" stroke-linecap="round" stroke-linejoin="round"/>
<path d="M5.9098 4.27344C5.47581 4.27344 5.05959 4.44584 4.75272 4.75272C4.44584 5.0596 4.27344 5.47581 4.27344 5.9098C4.27344 6.34379 4.44584 6.76001 4.75272 7.06689C5.05959 7.37376 5.47581 7.54616 5.9098 7.54616C6.34379 7.54616 6.76001 7.37376 7.06689 7.06689C7.37376 6.76001 7.54617 6.34379 7.54617 5.9098C7.54617 5.47581 7.37376 5.0596 7.06689 4.75272C6.76001 4.44584 6.34379 4.27344 5.9098 4.27344Z" stroke="black" stroke-linecap="round" stroke-linejoin="round"/>
</svg>
