<svg width="32" height="32" viewBox="0 0 32 32" fill="none" xmlns="http://www.w3.org/2000/svg">
<path d="M0.016444 20.1507C0.016444 16.4341 0.0327471 12.7176 0.00014078 9.00424C-0.00638049 8.4215 0.212082 8.25316 0.984853 8.25639C10.3755 8.27582 19.7694 8.27582 29.16 8.25639C29.8936 8.25639 30.1023 8.41503 30.0991 8.96863C30.073 14.5305 30.073 20.0924 30.0991 25.6543C30.0991 26.2564 29.8415 26.4021 29.0948 26.3892C27.2721 26.3536 25.4494 26.3957 23.6267 26.3698C22.9028 26.36 22.6387 26.5543 22.655 27.1046C22.6909 28.5065 22.642 29.9083 22.6811 31.3101C22.6942 31.8151 22.5279 32.0029 21.8073 31.9996C14.8262 31.9802 7.84197 31.9802 0.860949 31.9996C0.127306 31.9996 0.00014078 31.7924 0.00340141 31.3003C0.0262259 27.5838 0.016444 23.8705 0.016444 20.1539V20.1507Z" fill="#B6EFFF"/>
<path d="M5.40642 3.56935C5.40642 3.21971 5.40316 2.87007 5.40642 2.51719C5.41294 2.05748 5.70966 1.75316 6.31287 1.68841C6.92261 1.62043 7.22911 1.90856 7.32367 2.32295C7.51279 3.15496 7.50627 3.99022 7.32367 4.82223C7.23563 5.22691 6.88349 5.45677 6.36504 5.4341C5.85312 5.41144 5.50424 5.13626 5.44555 4.75748C5.38359 4.36576 5.4325 3.96432 5.4325 3.56935C5.42272 3.56935 5.4162 3.56935 5.40642 3.56935Z" fill="#B6EFFF"/>
<path d="M24.6826 3.56254C24.6826 3.93484 24.7185 4.31038 24.6728 4.68268C24.6239 5.09707 24.2946 5.39815 23.7403 5.43377C23.1632 5.46938 22.8241 5.18125 22.7491 4.76362C22.6056 3.95426 22.5763 3.13844 22.7719 2.33232C22.8697 1.92117 23.1632 1.62656 23.7794 1.69131C24.3826 1.75606 24.6826 2.05714 24.6924 2.51685C24.7022 2.86649 24.6924 3.21613 24.6924 3.56901C24.6891 3.56901 24.6859 3.56901 24.6826 3.56901V3.56254Z" fill="#B6EFFF"/>
<path d="M14.1153 3.469C14.1153 3.11936 14.099 2.76972 14.1218 2.42007C14.1479 1.9895 14.4381 1.70137 15.0315 1.69166C15.6249 1.68194 15.9575 1.95712 15.9771 2.3877C16.0097 3.15821 16.0032 3.92871 15.9804 4.69598C15.9673 5.12332 15.6217 5.43411 15.0739 5.43735C14.4739 5.44382 14.1414 5.11684 14.1185 4.66037C14.099 4.2654 14.1153 3.8672 14.1185 3.47224L14.1153 3.469Z" fill="#B6EFFF"/>
<path d="M5.35093 2.2419C5.78133 0.464559 6.22478 -0.00486714 7.40513 0.0016077C8.6083 0.01132 9.10718 0.551969 9.38433 2.18687H14.0992C14.2264 1.52967 13.9883 0.791538 14.8361 0.3124C15.2241 0.0987303 15.6448 -0.0145794 16.1306 0.0016077C17.324 0.0469316 17.7544 0.545494 17.9631 2.18363H22.6779C22.8084 1.51024 22.6616 0.755926 23.5453 0.286501C23.9137 0.0922554 24.305 -0.0145794 24.7582 0.0016077C25.9321 0.0436941 26.4472 0.623192 26.6494 2.23866C28.0058 2.23866 29.3785 2.23866 30.7545 2.23866C31.5762 2.23866 31.9871 2.5473 31.9871 3.16457C31.9871 10.5297 31.9838 17.8948 32.0001 25.2567C32.0001 25.71 31.8403 26.0369 31.4034 26.3607C29.1959 27.9988 27.0146 29.6531 24.8463 31.3172C24.468 31.6085 24.0833 31.7218 23.5485 31.7218C16.0686 31.7121 8.58874 31.7057 1.1121 31.7251C0.303463 31.7251 0.0491333 31.5405 0.0491333 30.9254C0.0719577 21.6211 0.0719577 12.3167 0.0491333 3.00917C0.0491333 2.37464 0.33933 2.20305 1.1284 2.22571C2.54026 2.26456 3.95537 2.23543 5.35093 2.23543V2.2419ZM0.994717 19.1801C0.994717 22.8966 1.0045 26.6132 0.981675 30.3265C0.981675 30.8186 1.10558 31.029 1.83922 31.0258C8.82024 31.0064 15.8045 31.0064 22.7855 31.0258C23.5029 31.0258 23.6724 30.8413 23.6594 30.3362C23.6203 28.9344 23.6692 27.5326 23.6333 26.1308C23.6203 25.5805 23.8844 25.3862 24.605 25.3959C26.4277 25.4218 28.2504 25.3797 30.0731 25.4153C30.823 25.4315 31.0806 25.2826 31.0773 24.6805C31.048 19.1186 31.0513 13.5567 31.0773 7.9948C31.0773 7.4412 30.8719 7.28256 30.1383 7.28256C20.7476 7.29875 11.3538 7.30199 1.96313 7.28256C1.19036 7.28256 0.971893 7.44767 0.978414 8.03041C1.01102 11.747 0.994717 15.4603 0.994717 19.1768V19.1801ZM1.01754 6.54443H31.0154V2.98327H26.6722C26.3266 4.6214 25.8179 5.16529 24.6637 5.16529C23.5224 5.16529 23.017 4.62788 22.6421 2.98003H17.9957C17.6272 4.63435 17.2164 5.16529 16.1241 5.14587C14.2622 5.11026 14.1155 4.03543 14.1286 2.98003H9.33542C9.3289 4.02572 9.14304 5.08759 7.48664 5.13292C5.66069 5.18148 5.44222 4.06133 5.4357 2.99946H1.01754V6.54443ZM24.5985 30.3103C26.444 28.9085 28.2765 27.5164 30.0633 26.1567H24.5985V30.3103ZM6.38455 2.59802C6.38455 2.59802 6.40085 2.59802 6.41063 2.59802C6.41063 2.99298 6.36172 3.39442 6.42368 3.78615C6.48563 4.16493 6.83125 4.44011 7.34317 4.46277C7.86162 4.48543 8.21376 4.25558 8.3018 3.8509C8.4844 3.01888 8.48766 2.18363 8.3018 1.35161C8.20724 0.933984 7.90074 0.649092 7.291 0.717077C6.69105 0.785063 6.39433 1.08938 6.38455 1.54586C6.37803 1.8955 6.38455 2.24514 6.38455 2.59802ZM25.6614 2.59154C25.6614 2.59154 25.6679 2.59154 25.6712 2.59154C25.6712 2.2419 25.6777 1.89226 25.6712 1.53938C25.6614 1.08291 25.3614 0.778588 24.7582 0.71384C24.1452 0.649092 23.8518 0.943697 23.7507 1.35485C23.555 2.1642 23.5877 2.9768 23.7279 3.78615C23.8029 4.20702 24.142 4.49191 24.7191 4.4563C25.2734 4.42392 25.6027 4.1196 25.6516 3.70521C25.6973 3.33615 25.6614 2.95737 25.6614 2.58507V2.59154ZM15.0937 2.49766C15.0937 2.89586 15.0774 3.29083 15.097 3.68579C15.1198 4.1455 15.4491 4.46925 16.0523 4.46277C16.6001 4.4563 16.9457 4.14874 16.9588 3.7214C16.9816 2.9509 16.9881 2.18039 16.9555 1.41312C16.936 0.982546 16.6034 0.707365 16.0099 0.717077C15.4165 0.72679 15.1296 1.01492 15.1002 1.4455C15.0774 1.79514 15.097 2.14478 15.0937 2.49442V2.49766Z" fill="#46A6C0"/>
<path d="M15.9344 10.3879C12.8433 10.3879 9.75224 10.3879 6.66116 10.3879C6.4753 10.3879 6.28945 10.3879 6.10359 10.3879C5.76123 10.3846 5.34386 10.4041 5.32104 10.0577C5.29822 9.70154 5.70906 9.69831 6.05794 9.69507C6.18185 9.69507 6.30575 9.69507 6.42966 9.69507C12.827 9.69507 19.2276 9.69507 25.625 9.69507C25.7163 9.69507 25.8109 9.69507 25.9022 9.69507C26.2674 9.70478 26.7402 9.65622 26.7304 10.0609C26.7206 10.4073 26.2934 10.3879 25.9478 10.3911C25.762 10.3911 25.5761 10.3911 25.3902 10.3911C22.2372 10.3911 19.0842 10.3911 15.9311 10.3911L15.9344 10.3879Z" fill="#46A6C0"/>
<path d="M16.0295 20.0764C19.1825 20.0764 22.3355 20.0764 25.4886 20.0764C25.6744 20.0764 25.8603 20.0764 26.0461 20.0764C26.3689 20.0764 26.7309 20.1023 26.7374 20.4066C26.7472 20.7627 26.3494 20.7692 25.9972 20.7725C25.8733 20.7725 25.7494 20.7725 25.6255 20.7725C19.2281 20.7725 12.8275 20.7725 6.43015 20.7725C6.33885 20.7725 6.24429 20.7725 6.153 20.7725C5.78781 20.7628 5.31501 20.8113 5.3248 20.4066C5.33132 20.0602 5.76498 20.0797 6.10735 20.0764C6.2932 20.0764 6.47906 20.0764 6.66492 20.0764C9.7886 20.0764 12.909 20.0764 16.0327 20.0764H16.0295Z" fill="#46A6C0"/>
<path d="M15.9964 17.2694C12.7521 17.2694 9.5045 17.2694 6.26017 17.2661C5.92106 17.2661 5.38306 17.3827 5.37001 16.9812C5.36023 16.6024 5.85911 16.5701 6.27647 16.5701C12.7684 16.5701 19.2571 16.5701 25.749 16.5733C25.9609 16.5733 26.1826 16.596 26.375 16.6542C26.5739 16.7158 26.7565 16.8388 26.7011 17.0298C26.6587 17.1819 26.4826 17.2499 26.2837 17.2564C26.0359 17.2661 25.7881 17.2661 25.5436 17.2661C22.3612 17.2661 19.1755 17.2661 15.9932 17.2661L15.9964 17.2694Z" fill="#46A6C0"/>
<path d="M16.0425 13.7671C12.8634 13.7671 9.6843 13.7671 6.50844 13.7671C6.26063 13.7671 6.01282 13.7703 5.76828 13.7541C5.54003 13.738 5.33135 13.6667 5.35744 13.4563C5.377 13.2977 5.54981 13.2232 5.74545 13.207C5.96065 13.1908 6.17586 13.1941 6.39106 13.1941C12.808 13.1941 19.2282 13.1941 25.6451 13.1941C25.7071 13.1941 25.769 13.1908 25.831 13.1941C26.1701 13.2232 26.7016 13.0969 26.6852 13.5049C26.6722 13.848 26.1733 13.7606 25.857 13.7606C22.7725 13.7671 19.6847 13.7639 16.6001 13.7639C16.4142 13.7639 16.2284 13.7639 16.0458 13.7639L16.0425 13.7671Z" fill="#46A6C0"/>
<path d="M16.0393 24.1491C12.8602 24.1491 9.68107 24.1491 6.50521 24.1491C6.2574 24.1491 6.00959 24.1523 5.76505 24.1361C5.5368 24.1199 5.33138 24.0455 5.35747 23.8383C5.37703 23.6797 5.54985 23.6052 5.74548 23.5922C5.96069 23.5761 6.17589 23.5793 6.39109 23.5793C12.808 23.5793 19.2282 23.5793 25.6451 23.5793C25.7071 23.5793 25.769 23.5728 25.831 23.5793C26.1701 23.6117 26.7048 23.4757 26.682 23.8933C26.6657 24.2365 26.1701 24.1491 25.8506 24.1491C22.5801 24.1556 19.3097 24.1523 16.0393 24.1523V24.1491Z" fill="#46A6C0"/>
</svg>
