<svg width="12" height="10" viewBox="0 0 12 10" fill="none" xmlns="http://www.w3.org/2000/svg">
<path d="M10.3991 10C10.3465 10.0001 10.2945 9.98933 10.246 9.96836C10.1975 9.94738 10.1534 9.91659 10.1163 9.87777L1.31715 0.704186C1.24531 0.625351 1.20585 0.520376 1.20719 0.411643C1.20852 0.30291 1.25055 0.199023 1.3243 0.122131C1.39805 0.0452389 1.4977 0.00142634 1.602 3.42139e-05C1.70629 -0.00135791 1.80698 0.0397807 1.8826 0.114679L10.6818 9.28827C10.7377 9.34658 10.7758 9.42086 10.7912 9.50172C10.8066 9.58258 10.7987 9.66639 10.7684 9.74256C10.7382 9.81873 10.6869 9.88384 10.6212 9.92966C10.5554 9.97549 10.4782 9.99996 10.3991 10ZM5.79949 6.556L4.50486 5.20628C4.49744 5.19861 4.48791 5.19356 4.47759 5.19183C4.46728 5.1901 4.4567 5.19178 4.44735 5.19664C4.438 5.2015 4.43035 5.20929 4.42546 5.21892C4.42058 5.22855 4.41871 5.23953 4.42012 5.25032C4.47238 5.60049 4.63009 5.92426 4.87045 6.17485C5.11081 6.42543 5.42137 6.58985 5.75725 6.64434C5.7676 6.64581 5.77813 6.64387 5.78737 6.63877C5.7966 6.63368 5.80408 6.6257 5.80874 6.61595C5.8134 6.6062 5.81501 6.59518 5.81335 6.58443C5.8117 6.57367 5.80685 6.56373 5.79949 6.556ZM6.19946 3.43646L7.49609 4.78773C7.50349 4.79551 7.51305 4.80066 7.52342 4.80245C7.53378 4.80424 7.54443 4.80258 7.55383 4.7977C7.56324 4.79283 7.57094 4.78498 7.57583 4.77529C7.58072 4.76559 7.58256 4.75454 7.58108 4.74369C7.52895 4.39305 7.37112 4.0688 7.13046 3.8179C6.8898 3.567 6.57878 3.40246 6.24245 3.34811C6.23204 3.34643 6.22138 3.34823 6.212 3.35325C6.20263 3.35826 6.19501 3.36624 6.19024 3.37604C6.18548 3.38583 6.1838 3.39695 6.18545 3.4078C6.18711 3.41865 6.19201 3.42868 6.19946 3.43646Z" fill="#00B58D"/>
<path d="M11.8739 5.44938C11.9567 5.31396 12.0004 5.15663 12 4.99606C11.9996 4.83549 11.9549 4.67842 11.8714 4.54349C11.21 3.47706 10.3518 2.57117 9.3899 1.92355C8.32425 1.20634 7.14935 0.827148 5.99146 0.827148C5.38104 0.828022 4.77477 0.931782 4.19612 1.13441C4.17992 1.14003 4.16538 1.14987 4.15386 1.16301C4.14235 1.17614 4.13425 1.19213 4.13034 1.20945C4.12643 1.22677 4.12684 1.24485 4.13153 1.26196C4.13622 1.27907 4.14503 1.29464 4.15712 1.3072L5.33802 2.53834C5.35028 2.55115 5.36554 2.56041 5.38228 2.56521C5.39903 2.57001 5.41668 2.57018 5.43351 2.5657C5.83378 2.464 6.25243 2.47146 6.64915 2.58734C7.04586 2.70322 7.40728 2.92363 7.6986 3.22735C7.98992 3.53106 8.20134 3.90786 8.31249 4.32145C8.42364 4.73504 8.43079 5.17151 8.33325 5.58881C8.329 5.60632 8.32918 5.62467 8.33379 5.64208C8.33839 5.65948 8.34725 5.67534 8.35949 5.68811L10.0581 7.46028C10.0758 7.47873 10.0994 7.48961 10.1244 7.49077C10.1494 7.49193 10.1739 7.48328 10.1931 7.46653C10.8469 6.88551 11.4135 6.20557 11.8739 5.44938ZM5.99946 7.49885C5.63618 7.49887 5.27763 7.4129 4.95086 7.24743C4.62408 7.08196 4.33761 6.84131 4.11303 6.54361C3.88845 6.24591 3.73163 5.89894 3.6544 5.52887C3.57717 5.15879 3.58153 4.77526 3.66717 4.40719C3.67141 4.38969 3.67123 4.37134 3.66663 4.35393C3.66203 4.33652 3.65317 4.32066 3.64092 4.3079L1.97007 2.56518C1.95235 2.54669 1.92862 2.53581 1.90357 2.5347C1.87853 2.53359 1.85399 2.54233 1.83483 2.55918C1.22514 3.10152 0.659939 3.76139 0.143236 4.53255C0.0527901 4.66789 0.00297806 4.8282 0.000129396 4.99312C-0.00271927 5.15804 0.041524 5.32012 0.127237 5.45877C0.787427 6.53588 1.63685 7.44308 2.58402 8.08184C3.65117 8.80191 4.79756 9.16677 5.99146 9.16677C6.60803 9.16505 7.22061 9.0635 7.80729 8.86576C7.82363 8.86032 7.83836 8.85059 7.85005 8.8375C7.86174 8.82441 7.87 8.80841 7.87404 8.79103C7.87808 8.77365 7.87777 8.75547 7.87313 8.73826C7.86849 8.72104 7.85967 8.70536 7.84754 8.69272L6.6609 7.45585C6.64865 7.44308 6.63344 7.43384 6.61674 7.42905C6.60005 7.42425 6.58244 7.42405 6.56565 7.42848C6.38028 7.47531 6.1902 7.49894 5.99946 7.49885Z" fill="#00B58D"/>
</svg>
