<svg width="30" height="26" viewBox="0 0 30 26" fill="none" xmlns="http://www.w3.org/2000/svg">
<path d="M5.68005 14.4179C6.43984 13.9293 7.30501 13.6162 8.20908 13.5024C9.11316 13.3887 10.0321 13.4774 10.8953 13.7618V13.7762C11.2757 12.4097 11.9849 11.1502 12.9646 10.101C13.9443 9.05178 15.1667 8.2428 16.5314 7.74045C16.15 6.91591 15.5901 6.18061 14.8898 5.58447C14.1894 4.98833 13.3649 4.5453 12.4723 4.28548C11.5797 4.02566 10.6399 3.95513 9.71672 4.07867C8.79353 4.20221 7.90857 4.51694 7.12192 5.00148C6.33528 5.48602 5.66538 6.12903 5.15771 6.88684C4.65004 7.64465 4.31649 8.49951 4.17971 9.39338C4.04293 10.2872 4.10613 11.1992 4.36501 12.0673C4.62389 12.9354 5.07239 13.7393 5.68005 14.4244V14.4179Z" fill="#F19700"/>
<path d="M9.46723 4.10187L8.9043 1" stroke="#FFB73F" stroke-width="2" stroke-linecap="round" stroke-linejoin="round"/>
<path d="M5.27563 6.68961L2.61523 4.88281" stroke="#FFB73F" stroke-width="2" stroke-linecap="round" stroke-linejoin="round"/>
<path d="M4.19897 11.3945L1 11.9417" stroke="#FFB73F" stroke-width="2" stroke-linecap="round" stroke-linejoin="round"/>
<path d="M14.3184 5.14654L16.1804 2.56689" stroke="#FFB73F" stroke-width="2" stroke-linecap="round" stroke-linejoin="round"/>
<path d="M5.68005 14.4176C5.07239 13.7324 4.62389 12.9285 4.36501 12.0604C4.10613 11.1924 4.04293 10.2804 4.17971 9.38654C4.31649 8.49267 4.65004 7.63781 5.15771 6.88C5.66538 6.12219 6.33528 5.47919 7.12192 4.99465C7.90857 4.51011 8.79353 4.19538 9.71672 4.07183C10.6399 3.94829 11.5797 4.01882 12.4723 4.27864C13.3649 4.53846 14.1894 4.98149 14.8898 5.57763C15.5901 6.17378 16.15 6.90908 16.5314 7.73361" stroke="#FFB73F" stroke-width="2" stroke-linecap="round" stroke-linejoin="round"/>
<path d="M10.5957 15.553C10.6998 13.812 11.3273 12.1386 12.4009 10.7395C13.4744 9.34029 14.9469 8.2765 16.6368 7.67941C18.3266 7.08231 20.1597 6.97803 21.9099 7.37943C23.6602 7.78083 25.2509 8.67035 26.4858 9.93821C27.7207 11.2061 28.5458 12.7968 28.8591 14.514C29.1725 16.2313 28.9604 17.9999 28.2492 19.6017C27.5379 21.2034 26.3585 22.5682 24.8566 23.5276C23.3547 24.487 21.596 24.9989 19.7974 25.0003H8.97181C8.10801 24.9995 7.25472 24.8165 6.47118 24.4639C5.68763 24.1113 4.99258 23.5976 4.43427 22.9585C3.87595 22.3194 3.46774 21.5701 3.23796 20.7627C3.00818 19.9553 2.96233 19.1091 3.1036 18.2828C3.24487 17.4565 3.56986 16.6699 4.05604 15.9775C4.54222 15.2852 5.17793 14.7037 5.91907 14.2735C6.6602 13.8433 7.48901 13.5745 8.34797 13.486C9.20694 13.3974 10.0755 13.4911 10.8934 13.7606" stroke="#46A6C0" stroke-width="2" stroke-linecap="round" stroke-linejoin="round"/>
</svg>
