<svg width="32" height="32" viewBox="0 0 32 32" fill="none" xmlns="http://www.w3.org/2000/svg">
<path d="M19.7367 20.5611C20.4819 20.455 21.1545 20.5949 21.8174 20.455C22.7706 20.2573 23.6513 19.8812 24.4932 19.4086C24.8174 19.2254 25.069 19.2061 25.4126 19.4038C26.7093 20.1512 28.0932 20.6479 29.6271 20.5129C30.1158 20.4695 30.2416 20.6431 30.2368 21.1061C30.2126 22.6492 30.2271 24.1875 30.2271 25.7307C30.2271 27.5101 29.5158 28.9231 28.0593 29.955C27.1642 30.5916 26.2593 31.204 25.369 31.8406C25.098 32.0335 24.8658 32.0576 24.5803 31.855C23.5448 31.1172 22.4706 30.4228 21.4545 29.6512C20.4674 28.899 19.8287 27.8429 19.7609 26.6325C19.6496 24.6312 19.7319 22.6203 19.7319 20.5563L19.7367 20.5611ZM24.9238 21.5931C22.9835 21.5979 21.348 23.2472 21.3432 25.2002C21.3432 27.0906 22.9787 28.8218 24.8851 28.7832C27.1835 28.735 28.5335 27.0858 28.5771 25.1327C28.6206 23.2279 26.8738 21.5835 24.9238 21.5931Z" fill="#B6EFFF"/>
<path d="M6.1313 4.25188C6.1313 4.76787 6.14581 5.27904 6.1313 5.7902C6.10711 6.43157 5.67646 6.84147 5.06678 6.84629C4.4571 6.84629 4.01194 6.4364 3.99743 5.79985C3.97807 4.7968 3.97807 3.78893 3.99743 2.78589C4.01194 2.14452 4.45227 1.73462 5.06194 1.73462C5.67162 1.73462 6.10711 2.1397 6.13614 2.78107C6.15549 3.27294 6.13614 3.76482 6.13614 4.2567L6.1313 4.25188Z" fill="#B6EFFF"/>
<path d="M10.0163 4.28954C10.0163 3.82177 10.0115 3.34918 10.0163 2.88141C10.026 2.2304 10.3695 1.80121 10.9066 1.73852C11.555 1.66619 12.097 2.00857 12.1405 2.6837C12.2082 3.74944 12.2082 4.82964 12.1405 5.89537C12.097 6.5705 11.5502 6.91771 10.9066 6.84055C10.3695 6.77786 10.0308 6.34867 10.0211 5.69284C10.0115 5.22507 10.0211 4.75248 10.0211 4.28471L10.0163 4.28954Z" fill="#B6EFFF"/>
<path d="M18.1258 4.28954C18.1258 4.7573 18.1306 5.22989 18.1258 5.69766C18.1161 6.34867 17.7726 6.77786 17.2355 6.84055C16.5919 6.91771 16.0452 6.5705 16.0016 5.89537C15.9339 4.82964 15.9339 3.74944 16.0016 2.6837C16.0452 2.00857 16.5919 1.66619 17.2355 1.73852C17.7726 1.80121 18.1113 2.2304 18.121 2.88624C18.1306 3.354 18.121 3.82659 18.121 4.29436L18.1258 4.28954Z" fill="#B6EFFF"/>
<path d="M22.0159 4.22735C22.0159 3.73547 21.9965 3.24359 22.0207 2.75171C22.0546 2.11999 22.5046 1.71491 23.1191 1.72938C23.6997 1.74385 24.1401 2.13928 24.1546 2.74207C24.1788 3.76923 24.1788 4.79638 24.1546 5.82354C24.1401 6.45527 23.6707 6.86034 23.061 6.84588C22.4804 6.83141 22.0497 6.43598 22.0207 5.83319C21.9965 5.29791 22.0159 4.76263 22.0159 4.22735Z" fill="#B6EFFF"/>
<path d="M5.35126 17.1172C6.63352 18.0768 7.81416 18.9593 9.06739 19.8997C8.61255 20.0781 8.21094 20.2179 7.819 20.3867C6.78352 20.84 6.019 21.4525 6.11578 22.8799C6.18352 23.9022 6.05771 23.9697 5.01255 23.8781C3.30932 23.7238 2.22061 21.7273 3.1061 20.1987C3.72545 19.1281 4.56255 18.1829 5.35126 17.1172Z" fill="#B6EFFF"/>
<path d="M6.88555 23.6326C10.1904 25.2095 13.4323 25.1805 16.6839 23.6422C16.8823 24.3415 16.5775 24.7803 16.0259 25.1034C15.121 25.6338 14.1194 25.8653 13.0936 25.9569C11.2017 26.1257 9.33878 26.0486 7.61136 25.142C7.02588 24.8333 6.68717 24.3849 6.88555 23.6326Z" fill="#B6EFFF"/>
<path d="M4.09839 2.67857C4.47581 0.604962 4.95484 -0.0364083 6.06291 -0.00265197C7.20001 0.0311044 7.70807 0.74481 7.90646 2.6207H10.1807C10.2145 1.82019 10.1468 0.985927 10.8871 0.421714C11.2355 0.156485 11.6226 -0.017119 12.0629 0.00217036C12.7065 0.0311044 13.2048 0.325267 13.5823 0.860546C13.9597 1.40065 13.7807 2.02755 13.8823 2.63999H16.2242C16.2436 1.81537 16.1565 0.976282 16.9016 0.412069C17.25 0.151663 17.6419 -0.00265197 18.0823 -0.00265197C19.171 0.011815 19.6113 0.633896 19.9597 2.64481C20.6807 2.69786 21.4065 2.69786 22.2 2.63999C22.2387 1.82501 22.1807 0.985927 22.9065 0.421714C23.25 0.151663 23.642 -0.00265197 24.0823 -0.00265197C25.1855 0.0069927 25.6403 0.638719 25.9839 2.67857C26.5887 2.67857 27.2081 2.67857 27.8323 2.67857C29.2791 2.68821 30.0823 3.4839 30.0871 4.92577C30.092 9.26105 30.0871 13.5963 30.092 17.9316C30.092 18.1968 30.0387 18.4669 30.1597 18.7321C30.4162 18.9009 30.6774 18.7611 30.9387 18.7514C31.5629 18.7273 31.9645 19.0215 31.9597 19.6387C31.95 21.6496 32.0952 23.6605 31.8871 25.6666C31.7226 27.2387 30.9339 28.4877 29.671 29.4232C28.6597 30.1659 27.6097 30.8555 26.5984 31.5885C26.1242 31.9309 25.7081 31.8971 25.2484 31.5692C24.3049 30.8892 23.3226 30.2575 22.3984 29.5534C22.0113 29.2593 21.629 29.1677 21.1597 29.1677C14.9468 29.1773 8.73872 29.1725 2.52581 29.1725C0.706452 29.1821 0 28.4732 0 26.6552C0 19.4844 0 12.3088 0 5.13313C0 3.41156 0.730646 2.68339 2.45323 2.67857C3.00968 2.67857 3.56129 2.67857 4.09839 2.67857ZM0.774194 9.12121C0.774194 9.4009 0.774194 9.60344 0.774194 9.80116C0.774194 15.477 0.774194 21.1481 0.774194 26.824C0.774194 28.0248 1.16613 28.4057 2.39516 28.4057C8.38065 28.4057 14.3661 28.4057 20.3516 28.4057C20.5645 28.4057 20.7823 28.4057 21.1016 28.4057C20.4968 27.5232 20.0468 26.6697 19.9694 25.7004C19.8049 23.6509 19.9016 21.5918 19.921 19.5375C19.9258 18.9973 20.3371 18.6743 20.8887 18.7562C22.4613 18.9925 23.8597 18.5103 25.1807 17.7484C25.7129 17.4397 26.1484 17.4397 26.6758 17.7532C27.4694 18.2306 28.3258 18.5971 29.2549 18.7128V9.12121H0.774194ZM29.3081 8.28694C29.3081 7.0042 29.3226 5.79862 29.3032 4.59303C29.2936 4.01435 28.9403 3.56588 28.3887 3.50319C27.5807 3.41638 26.7532 3.47907 25.8968 3.47907C25.8968 3.9372 25.9113 4.31334 25.8968 4.6943C25.8532 5.85649 25.0694 6.67628 24.0339 6.65217C23.0129 6.63288 22.2871 5.8372 22.229 4.69912C22.2097 4.30369 22.2968 3.90344 22.1661 3.52248C21.4307 3.40192 20.4 3.42121 19.8774 3.56588C19.8774 3.99989 19.9016 4.44836 19.8774 4.89202C19.8145 5.89506 18.9823 6.67146 18.0242 6.64735C17.0371 6.62324 16.2774 5.84684 16.2484 4.82451C16.2339 4.38567 16.2484 3.94202 16.2484 3.44532C15.7936 3.44532 15.4161 3.43567 15.0387 3.44532C14.6661 3.45978 14.2839 3.38263 13.8532 3.52248C13.8532 3.91791 13.8532 4.31334 13.8532 4.70877C13.8387 5.83237 13.0936 6.63288 12.0581 6.64735C11.0516 6.65699 10.2436 5.82755 10.2194 4.7377C10.2097 4.32298 10.2194 3.90826 10.2194 3.4839H7.86775C7.86775 3.89862 7.87743 4.27476 7.86775 4.64608C7.83388 5.82755 7.08871 6.6377 6.04355 6.64735C5.00323 6.65217 4.24839 5.8372 4.2 4.66537C4.18549 4.27476 4.25807 3.87451 4.13226 3.45014C3.35807 3.45014 2.62258 3.42121 1.8871 3.45978C1.30645 3.48872 0.856452 3.86004 0.82742 4.40978C0.759678 5.69253 0.803226 6.98009 0.803226 8.28212H29.3081V8.28694ZM20.7049 19.5953C20.7049 21.6593 20.6226 23.6702 20.7339 25.6715C20.8016 26.8819 21.4403 27.938 22.4274 28.6902C23.4387 29.4618 24.5129 30.1514 25.5532 30.8941C25.8387 31.0966 26.0661 31.0725 26.342 30.8796C27.2323 30.243 28.142 29.6306 29.0323 28.9941C30.4887 27.9621 31.2 26.5491 31.2 24.7697C31.2 23.2265 31.1855 21.6882 31.2097 20.1451C31.2145 19.6821 31.0887 19.5085 30.6 19.5519C29.0662 19.6869 27.6823 19.1902 26.3855 18.4428C26.042 18.2451 25.7903 18.2692 25.4661 18.4476C24.6242 18.9202 23.7436 19.2963 22.7903 19.494C22.1274 19.6291 21.4549 19.4941 20.7097 19.6001L20.7049 19.5953ZM7.09839 3.28618C7.09839 2.7943 7.11775 2.30242 7.09839 1.81055C7.06936 1.16918 6.63871 0.764099 6.0242 0.764099C5.41452 0.764099 4.9742 1.174 4.95968 1.81537C4.94033 2.81841 4.94033 3.82628 4.95968 4.82933C4.9742 5.46588 5.41936 5.8806 6.02904 5.87577C6.63871 5.87577 7.06936 5.46105 7.09355 4.81968C7.11291 4.30852 7.09355 3.79253 7.09355 3.28136L7.09839 3.28618ZM10.9887 3.31994C10.9887 3.7877 10.9839 4.26029 10.9887 4.72806C10.9984 5.37907 11.3371 5.80826 11.8742 5.87577C12.5178 5.95293 13.0645 5.61055 13.1081 4.9306C13.1807 3.86486 13.1807 2.78466 13.1081 1.71892C13.0645 1.04379 12.5226 0.696587 11.8742 0.773744C11.3371 0.836434 10.9984 1.26562 10.9839 1.91664C10.9742 2.3844 10.9839 2.85699 10.9839 3.32476L10.9887 3.31994ZM19.0984 3.31994C19.0984 2.85217 19.1032 2.37958 19.0984 1.91182C19.0887 1.2608 18.75 0.82679 18.2129 0.764099C17.5694 0.686942 17.0226 1.03415 16.979 1.70928C16.9113 2.77501 16.9113 3.85522 16.979 4.92095C17.0226 5.59608 17.5694 5.94329 18.2129 5.86613C18.75 5.80344 19.0887 5.37425 19.1032 4.72324C19.1129 4.25547 19.1032 3.78288 19.1032 3.31511L19.0984 3.31994ZM22.9887 3.25725C22.9887 3.79253 22.9694 4.33263 22.9936 4.86308C23.0226 5.46588 23.4484 5.86131 24.0339 5.87577C24.6436 5.89024 25.1129 5.48517 25.1274 4.85344C25.1516 3.82628 25.1516 2.79912 25.1274 1.77197C25.1129 1.16918 24.6726 0.773744 24.092 0.759277C23.4774 0.74481 23.0274 1.14989 22.9936 1.78161C22.9694 2.27349 22.9887 2.76537 22.9936 3.25725H22.9887Z" fill="#46A6C0"/>
<path d="M11.7197 18.7375C13.2245 18.7037 14.5648 18.7037 15.8713 19.0992C16.3648 19.2487 16.8487 19.4223 17.2939 19.6923C18.0342 20.136 18.5181 20.7195 18.4213 21.655C18.3874 21.9877 18.3826 22.3301 18.4213 22.658C18.5761 23.8926 17.889 24.5822 16.8681 25.0355C15.339 25.7154 13.7181 25.8697 12.0681 25.7829C10.9455 25.7251 9.84224 25.5563 8.80192 25.103C8.10515 24.7992 7.66482 24.1771 7.09869 23.772C6.59063 23.4103 5.68579 23.7383 4.98418 23.4152C3.12611 22.552 2.4003 20.2903 3.58579 18.6218C5.07127 16.524 6.62934 14.4745 8.22611 12.4636C9.38257 11.0073 11.3519 10.853 12.789 11.9814C14.1681 13.0664 14.4439 15.0002 13.4035 16.4806C12.8955 17.2088 12.3439 17.908 11.7197 18.7423V18.7375ZM6.77934 15.5644C8.17289 16.6108 9.48418 17.5994 10.839 18.6169C11.6181 17.6187 12.4213 16.7121 13.0068 15.6657C13.6261 14.5613 13.239 13.187 12.2035 12.4636C11.1681 11.7403 9.75031 11.856 8.91321 12.8157C8.16805 13.6692 7.51966 14.6047 6.78418 15.5644H6.77934ZM6.3245 16.1479C5.53579 17.2136 4.70353 18.1636 4.07934 19.2294C3.19385 20.758 4.28256 22.7545 5.98579 22.9088C7.03095 23.0004 7.15676 22.9377 7.08902 21.9106C6.99224 20.4832 7.75676 19.8707 8.79224 19.4174C9.18418 19.2487 9.58579 19.104 10.0406 18.9304C8.7874 17.99 7.60676 17.1075 6.3245 16.1479ZM7.85837 22.6629C7.65998 23.4152 7.99869 23.8636 8.58418 24.1723C10.3164 25.0789 12.1793 25.156 14.0664 24.9872C15.0971 24.8956 16.0939 24.6641 16.9987 24.1337C17.5503 23.8106 17.8503 23.3718 17.6568 22.6725C14.4003 24.2108 11.1632 24.2398 7.85837 22.6629ZM8.08095 21.655C9.37773 23.5695 16.4568 23.4441 17.3955 21.655H8.07611H8.08095ZM8.05192 20.8304H17.4584C15.7406 18.9834 9.7987 18.9834 8.05192 20.8304Z" fill="#46A6C0"/>
<path d="M22.205 11.2537C23.6614 11.2537 25.113 11.2537 26.5695 11.2537C26.8598 11.2537 27.2324 11.2151 27.2517 11.6057C27.2759 12.0542 26.8792 12.0204 26.5646 12.0204C23.613 12.0204 20.6566 12.0204 17.705 12.0204C17.4146 12.0204 17.0469 12.059 17.0275 11.6636C17.0034 11.2103 17.4001 11.2489 17.7098 11.2489C19.2098 11.2489 20.7098 11.2489 22.2098 11.2489L22.205 11.2537Z" fill="#46A6C0"/>
<path d="M22.1811 13.2636C23.6375 13.2636 25.0891 13.2636 26.5456 13.2636C26.8553 13.2636 27.2617 13.2105 27.252 13.659C27.2424 14.0978 26.8311 14.0352 26.5262 14.0352C23.594 14.0352 20.6617 14.0352 17.7295 14.0352C17.4246 14.0352 17.0133 14.0882 17.0278 13.6397C17.0375 13.1912 17.4488 13.2636 17.7488 13.2636C19.2246 13.2636 20.7004 13.2636 22.1811 13.2636Z" fill="#46A6C0"/>
<path d="M20.0857 15.2803C20.8454 15.2803 21.6099 15.2803 22.3696 15.2803C22.6502 15.2803 22.955 15.2947 22.9599 15.6612C22.9599 16.0277 22.6599 16.0518 22.3792 16.0518C20.7873 16.0518 19.2002 16.0518 17.6083 16.0518C17.3276 16.0518 17.0228 16.0277 17.0179 15.6709C17.0179 15.3092 17.3179 15.2803 17.5986 15.2803C18.426 15.2803 19.2583 15.2803 20.0857 15.2803Z" fill="#46A6C0"/>
<path d="M25.8912 20.6287C27.8412 20.6239 29.588 22.2634 29.5444 24.1683C29.5009 26.1213 28.1509 27.7706 25.8525 27.8188C23.9509 27.8574 22.3105 26.1261 22.3105 24.2358C22.3105 22.2827 23.946 20.6335 25.8912 20.6287ZM23.0896 24.2406C23.0993 25.8223 24.3864 27.0858 25.9638 27.0617C27.517 27.0424 28.7654 25.7789 28.7702 24.231C28.7702 22.6299 27.5315 21.3906 25.9202 21.3954C24.3041 21.3954 23.0799 22.6299 23.0896 24.2406Z" fill="#46A6C0"/>
<path d="M26.3806 24.9928C26.1919 25.34 26.5548 25.9862 25.9451 25.991C25.2628 25.9958 25.6983 25.3111 25.4903 24.988C25.1032 24.9204 24.7161 25.6727 24.3919 25.1471C24.0193 24.5491 24.9048 24.5829 25.0596 24.2067C24.8612 23.8836 24.0822 23.8885 24.3822 23.3339C24.6628 22.8179 25.0693 23.4303 25.4612 23.44C25.6015 23.2809 25.5386 23.0783 25.5435 22.8902C25.5532 22.6443 25.6112 22.4177 25.8822 22.3935C26.1967 22.3694 26.2935 22.6057 26.3128 22.8758C26.3274 23.0494 26.337 23.2278 26.3467 23.4014C26.7628 23.5027 27.1886 22.7793 27.4838 23.3387C27.779 23.8981 26.9757 23.8644 26.8112 24.2116C26.9564 24.5877 27.8564 24.5395 27.4693 25.1519C27.1596 25.639 26.787 24.9783 26.3854 24.988L26.3806 24.9928Z" fill="#46A6C0"/>
</svg>
